<mxfile host="app.diagrams.net" modified="2024-03-10T15:06:44.109Z" agent="Mozilla/5.0 (Windows NT 10.0; Win64; x64) AppleWebKit/537.36 (KHTML, like Gecko) Chrome/121.0.0.0 Safari/537.36" etag="Kg_rz6a9NOS-HKJ083cw" version="24.0.0" type="device">
  <diagram name="Страница 1" id="9oINTbgdad8pBdmm9y7S">
    <mxGraphModel dx="1450" dy="569" grid="0" gridSize="10" guides="1" tooltips="1" connect="1" arrows="1" fold="1" page="0" pageScale="1" pageWidth="827" pageHeight="1169" math="0" shadow="0">
      <root>
        <mxCell id="0" />
        <mxCell id="1" parent="0" />
        <mxCell id="4leQm3MVnvcEpeQvCGNz-1" value="" style="shape=umlLifeline;perimeter=lifelinePerimeter;whiteSpace=wrap;html=1;container=1;dropTarget=0;collapsible=0;recursiveResize=0;outlineConnect=0;portConstraint=eastwest;newEdgeStyle={&quot;edgeStyle&quot;:&quot;elbowEdgeStyle&quot;,&quot;elbow&quot;:&quot;vertical&quot;,&quot;curved&quot;:0,&quot;rounded&quot;:0};participant=umlActor;" parent="1" vertex="1">
          <mxGeometry x="101" y="50" width="20" height="1920" as="geometry" />
        </mxCell>
        <mxCell id="4leQm3MVnvcEpeQvCGNz-2" value="" style="html=1;points=[];perimeter=orthogonalPerimeter;outlineConnect=0;targetShapes=umlLifeline;portConstraint=eastwest;newEdgeStyle={&quot;edgeStyle&quot;:&quot;elbowEdgeStyle&quot;,&quot;elbow&quot;:&quot;vertical&quot;,&quot;curved&quot;:0,&quot;rounded&quot;:0};" parent="4leQm3MVnvcEpeQvCGNz-1" vertex="1">
          <mxGeometry x="5" y="237" width="10" height="180" as="geometry" />
        </mxCell>
        <mxCell id="4leQm3MVnvcEpeQvCGNz-4" value="" style="html=1;points=[];perimeter=orthogonalPerimeter;outlineConnect=0;targetShapes=umlLifeline;portConstraint=eastwest;newEdgeStyle={&quot;edgeStyle&quot;:&quot;elbowEdgeStyle&quot;,&quot;elbow&quot;:&quot;vertical&quot;,&quot;curved&quot;:0,&quot;rounded&quot;:0};" parent="4leQm3MVnvcEpeQvCGNz-1" vertex="1">
          <mxGeometry x="5" y="519" width="10" height="200" as="geometry" />
        </mxCell>
        <mxCell id="4leQm3MVnvcEpeQvCGNz-5" value="" style="html=1;points=[];perimeter=orthogonalPerimeter;outlineConnect=0;targetShapes=umlLifeline;portConstraint=eastwest;newEdgeStyle={&quot;edgeStyle&quot;:&quot;elbowEdgeStyle&quot;,&quot;elbow&quot;:&quot;vertical&quot;,&quot;curved&quot;:0,&quot;rounded&quot;:0};" parent="4leQm3MVnvcEpeQvCGNz-1" vertex="1">
          <mxGeometry x="5" y="786" width="10" height="250" as="geometry" />
        </mxCell>
        <mxCell id="4leQm3MVnvcEpeQvCGNz-8" value="Клиент" style="shape=umlLifeline;perimeter=lifelinePerimeter;whiteSpace=wrap;html=1;container=1;dropTarget=0;collapsible=0;recursiveResize=0;outlineConnect=0;portConstraint=eastwest;newEdgeStyle={&quot;edgeStyle&quot;:&quot;elbowEdgeStyle&quot;,&quot;elbow&quot;:&quot;vertical&quot;,&quot;curved&quot;:0,&quot;rounded&quot;:0};" parent="1" vertex="1">
          <mxGeometry x="310" y="50" width="100" height="1919" as="geometry" />
        </mxCell>
        <mxCell id="4leQm3MVnvcEpeQvCGNz-9" value="" style="html=1;points=[];perimeter=orthogonalPerimeter;outlineConnect=0;targetShapes=umlLifeline;portConstraint=eastwest;newEdgeStyle={&quot;edgeStyle&quot;:&quot;elbowEdgeStyle&quot;,&quot;elbow&quot;:&quot;vertical&quot;,&quot;curved&quot;:0,&quot;rounded&quot;:0};" parent="4leQm3MVnvcEpeQvCGNz-8" vertex="1">
          <mxGeometry x="45" y="237" width="10" height="170" as="geometry" />
        </mxCell>
        <mxCell id="4leQm3MVnvcEpeQvCGNz-11" value="" style="html=1;points=[];perimeter=orthogonalPerimeter;outlineConnect=0;targetShapes=umlLifeline;portConstraint=eastwest;newEdgeStyle={&quot;edgeStyle&quot;:&quot;elbowEdgeStyle&quot;,&quot;elbow&quot;:&quot;vertical&quot;,&quot;curved&quot;:0,&quot;rounded&quot;:0};" parent="4leQm3MVnvcEpeQvCGNz-8" vertex="1">
          <mxGeometry x="45" y="519" width="10" height="200" as="geometry" />
        </mxCell>
        <mxCell id="4leQm3MVnvcEpeQvCGNz-12" value="" style="html=1;points=[];perimeter=orthogonalPerimeter;outlineConnect=0;targetShapes=umlLifeline;portConstraint=eastwest;newEdgeStyle={&quot;edgeStyle&quot;:&quot;elbowEdgeStyle&quot;,&quot;elbow&quot;:&quot;vertical&quot;,&quot;curved&quot;:0,&quot;rounded&quot;:0};" parent="4leQm3MVnvcEpeQvCGNz-8" vertex="1">
          <mxGeometry x="45" y="804" width="10" height="240" as="geometry" />
        </mxCell>
        <mxCell id="4leQm3MVnvcEpeQvCGNz-19" value="Сервер" style="shape=umlLifeline;perimeter=lifelinePerimeter;whiteSpace=wrap;html=1;container=1;dropTarget=0;collapsible=0;recursiveResize=0;outlineConnect=0;portConstraint=eastwest;newEdgeStyle={&quot;edgeStyle&quot;:&quot;elbowEdgeStyle&quot;,&quot;elbow&quot;:&quot;vertical&quot;,&quot;curved&quot;:0,&quot;rounded&quot;:0};" parent="1" vertex="1">
          <mxGeometry x="530" y="50" width="104" height="1920" as="geometry" />
        </mxCell>
        <mxCell id="4leQm3MVnvcEpeQvCGNz-20" value="" style="html=1;points=[];perimeter=orthogonalPerimeter;outlineConnect=0;targetShapes=umlLifeline;portConstraint=eastwest;newEdgeStyle={&quot;edgeStyle&quot;:&quot;elbowEdgeStyle&quot;,&quot;elbow&quot;:&quot;vertical&quot;,&quot;curved&quot;:0,&quot;rounded&quot;:0};" parent="4leQm3MVnvcEpeQvCGNz-19" vertex="1">
          <mxGeometry x="47" y="237" width="10" height="160" as="geometry" />
        </mxCell>
        <mxCell id="4leQm3MVnvcEpeQvCGNz-23" value="" style="html=1;points=[];perimeter=orthogonalPerimeter;outlineConnect=0;targetShapes=umlLifeline;portConstraint=eastwest;newEdgeStyle={&quot;edgeStyle&quot;:&quot;elbowEdgeStyle&quot;,&quot;elbow&quot;:&quot;vertical&quot;,&quot;curved&quot;:0,&quot;rounded&quot;:0};" parent="4leQm3MVnvcEpeQvCGNz-19" vertex="1">
          <mxGeometry x="45" y="539" width="10" height="160" as="geometry" />
        </mxCell>
        <mxCell id="4leQm3MVnvcEpeQvCGNz-24" value="" style="html=1;points=[];perimeter=orthogonalPerimeter;outlineConnect=0;targetShapes=umlLifeline;portConstraint=eastwest;newEdgeStyle={&quot;edgeStyle&quot;:&quot;elbowEdgeStyle&quot;,&quot;elbow&quot;:&quot;vertical&quot;,&quot;curved&quot;:0,&quot;rounded&quot;:0};" parent="4leQm3MVnvcEpeQvCGNz-19" vertex="1">
          <mxGeometry x="45" y="829" width="10" height="190" as="geometry" />
        </mxCell>
        <mxCell id="uqAqxy9ySAdUdyoLMSND-5" value="" style="html=1;points=[];perimeter=orthogonalPerimeter;outlineConnect=0;targetShapes=umlLifeline;portConstraint=eastwest;newEdgeStyle={&quot;edgeStyle&quot;:&quot;elbowEdgeStyle&quot;,&quot;elbow&quot;:&quot;vertical&quot;,&quot;curved&quot;:0,&quot;rounded&quot;:0};" parent="4leQm3MVnvcEpeQvCGNz-19" vertex="1">
          <mxGeometry x="47" y="1679" width="10" height="190" as="geometry" />
        </mxCell>
        <mxCell id="4leQm3MVnvcEpeQvCGNz-149" value="" style="html=1;points=[];perimeter=orthogonalPerimeter;outlineConnect=0;targetShapes=umlLifeline;portConstraint=eastwest;newEdgeStyle={&quot;edgeStyle&quot;:&quot;elbowEdgeStyle&quot;,&quot;elbow&quot;:&quot;vertical&quot;,&quot;curved&quot;:0,&quot;rounded&quot;:0};" parent="4leQm3MVnvcEpeQvCGNz-19" vertex="1">
          <mxGeometry x="47" y="1399" width="10" height="190" as="geometry" />
        </mxCell>
        <mxCell id="4leQm3MVnvcEpeQvCGNz-134" value="" style="html=1;points=[];perimeter=orthogonalPerimeter;outlineConnect=0;targetShapes=umlLifeline;portConstraint=eastwest;newEdgeStyle={&quot;edgeStyle&quot;:&quot;elbowEdgeStyle&quot;,&quot;elbow&quot;:&quot;vertical&quot;,&quot;curved&quot;:0,&quot;rounded&quot;:0};" parent="4leQm3MVnvcEpeQvCGNz-19" vertex="1">
          <mxGeometry x="47" y="1118" width="10" height="190" as="geometry" />
        </mxCell>
        <mxCell id="4leQm3MVnvcEpeQvCGNz-29" value="Премиум пользователь" style="text;html=1;align=center;verticalAlign=middle;resizable=0;points=[];autosize=1;strokeColor=none;fillColor=none;" parent="1" vertex="1">
          <mxGeometry x="26" y="92" width="148" height="26" as="geometry" />
        </mxCell>
        <mxCell id="4leQm3MVnvcEpeQvCGNz-30" value="&lt;span style=&quot;font-weight: normal;&quot;&gt;База данных&lt;/span&gt;" style="shape=umlLifeline;perimeter=lifelinePerimeter;whiteSpace=wrap;html=1;container=1;dropTarget=0;collapsible=0;recursiveResize=0;outlineConnect=0;portConstraint=eastwest;newEdgeStyle={&quot;edgeStyle&quot;:&quot;elbowEdgeStyle&quot;,&quot;elbow&quot;:&quot;vertical&quot;,&quot;curved&quot;:0,&quot;rounded&quot;:0};fontStyle=1" parent="1" vertex="1">
          <mxGeometry x="840" y="50" width="100" height="1920" as="geometry" />
        </mxCell>
        <mxCell id="4leQm3MVnvcEpeQvCGNz-31" value="" style="html=1;points=[];perimeter=orthogonalPerimeter;outlineConnect=0;targetShapes=umlLifeline;portConstraint=eastwest;newEdgeStyle={&quot;edgeStyle&quot;:&quot;elbowEdgeStyle&quot;,&quot;elbow&quot;:&quot;vertical&quot;,&quot;curved&quot;:0,&quot;rounded&quot;:0};" parent="4leQm3MVnvcEpeQvCGNz-30" vertex="1">
          <mxGeometry x="45" y="237" width="10" height="120" as="geometry" />
        </mxCell>
        <mxCell id="4leQm3MVnvcEpeQvCGNz-33" value="" style="html=1;points=[];perimeter=orthogonalPerimeter;outlineConnect=0;targetShapes=umlLifeline;portConstraint=eastwest;newEdgeStyle={&quot;edgeStyle&quot;:&quot;elbowEdgeStyle&quot;,&quot;elbow&quot;:&quot;vertical&quot;,&quot;curved&quot;:0,&quot;rounded&quot;:0};" parent="4leQm3MVnvcEpeQvCGNz-30" vertex="1">
          <mxGeometry x="42" y="549" width="10" height="140" as="geometry" />
        </mxCell>
        <mxCell id="4leQm3MVnvcEpeQvCGNz-34" value="" style="html=1;points=[];perimeter=orthogonalPerimeter;outlineConnect=0;targetShapes=umlLifeline;portConstraint=eastwest;newEdgeStyle={&quot;edgeStyle&quot;:&quot;elbowEdgeStyle&quot;,&quot;elbow&quot;:&quot;vertical&quot;,&quot;curved&quot;:0,&quot;rounded&quot;:0};" parent="4leQm3MVnvcEpeQvCGNz-30" vertex="1">
          <mxGeometry x="45" y="859" width="10" height="130" as="geometry" />
        </mxCell>
        <mxCell id="4leQm3MVnvcEpeQvCGNz-38" value="Открытие приложения" style="html=1;verticalAlign=bottom;startArrow=none;endArrow=block;startSize=8;edgeStyle=elbowEdgeStyle;elbow=vertical;curved=0;rounded=0;startFill=0;" parent="1" source="4leQm3MVnvcEpeQvCGNz-2" target="4leQm3MVnvcEpeQvCGNz-9" edge="1">
          <mxGeometry relative="1" as="geometry">
            <mxPoint x="295" y="120" as="sourcePoint" />
            <Array as="points">
              <mxPoint x="249" y="309" />
            </Array>
          </mxGeometry>
        </mxCell>
        <mxCell id="4leQm3MVnvcEpeQvCGNz-39" value="Запрос на получение данных" style="html=1;verticalAlign=bottom;endArrow=block;edgeStyle=elbowEdgeStyle;elbow=vertical;curved=0;rounded=0;" parent="1" source="4leQm3MVnvcEpeQvCGNz-9" target="4leQm3MVnvcEpeQvCGNz-20" edge="1">
          <mxGeometry relative="1" as="geometry">
            <mxPoint x="475" y="120" as="sourcePoint" />
            <Array as="points">
              <mxPoint x="499" y="320" />
              <mxPoint x="450" y="140" />
            </Array>
          </mxGeometry>
        </mxCell>
        <mxCell id="4leQm3MVnvcEpeQvCGNz-40" value="Поиск информации в базе данных&amp;nbsp;" style="html=1;verticalAlign=bottom;endArrow=block;edgeStyle=elbowEdgeStyle;elbow=vertical;curved=0;rounded=0;targetPerimeterSpacing=0;endSize=6;sourcePerimeterSpacing=0;startSize=6;strokeWidth=1;shadow=0;" parent="1" target="4leQm3MVnvcEpeQvCGNz-31" edge="1">
          <mxGeometry x="0.0111" y="6" relative="1" as="geometry">
            <mxPoint x="587" y="330" as="sourcePoint" />
            <Array as="points">
              <mxPoint x="741" y="330" />
              <mxPoint x="693" y="161" />
            </Array>
            <mxPoint x="895" y="298" as="targetPoint" />
            <mxPoint as="offset" />
          </mxGeometry>
        </mxCell>
        <mxCell id="4leQm3MVnvcEpeQvCGNz-41" value="Результат поиска" style="html=1;verticalAlign=bottom;endArrow=open;dashed=1;endSize=8;edgeStyle=elbowEdgeStyle;elbow=vertical;curved=0;rounded=0;" parent="1" source="4leQm3MVnvcEpeQvCGNz-31" target="4leQm3MVnvcEpeQvCGNz-20" edge="1">
          <mxGeometry relative="1" as="geometry">
            <mxPoint x="580" y="180" as="targetPoint" />
            <Array as="points">
              <mxPoint x="758" y="399" />
              <mxPoint x="720" y="220" />
              <mxPoint x="660" y="200" />
              <mxPoint x="690" y="180" />
            </Array>
          </mxGeometry>
        </mxCell>
        <mxCell id="4leQm3MVnvcEpeQvCGNz-42" value="" style="html=1;verticalAlign=bottom;endArrow=open;dashed=1;endSize=8;edgeStyle=elbowEdgeStyle;elbow=vertical;curved=0;rounded=0;" parent="1" source="4leQm3MVnvcEpeQvCGNz-20" target="4leQm3MVnvcEpeQvCGNz-9" edge="1">
          <mxGeometry relative="1" as="geometry">
            <mxPoint x="495" y="195" as="targetPoint" />
            <Array as="points">
              <mxPoint x="503" y="399" />
              <mxPoint x="460" y="260" />
              <mxPoint x="480" y="210" />
            </Array>
          </mxGeometry>
        </mxCell>
        <mxCell id="4leQm3MVnvcEpeQvCGNz-43" value="Возвращение найденных данных" style="edgeLabel;html=1;align=center;verticalAlign=middle;resizable=0;points=[];" parent="4leQm3MVnvcEpeQvCGNz-42" vertex="1" connectable="0">
          <mxGeometry x="0.2652" y="4" relative="1" as="geometry">
            <mxPoint x="25" y="-14" as="offset" />
          </mxGeometry>
        </mxCell>
        <mxCell id="4leQm3MVnvcEpeQvCGNz-48" value="Вход" style="rounded=1;whiteSpace=wrap;html=1;" parent="1" vertex="1">
          <mxGeometry x="-37" y="332" width="120" height="60" as="geometry" />
        </mxCell>
        <mxCell id="4leQm3MVnvcEpeQvCGNz-49" value="" style="endArrow=none;html=1;rounded=0;" parent="1" edge="1">
          <mxGeometry width="50" height="50" relative="1" as="geometry">
            <mxPoint x="-37" y="513" as="sourcePoint" />
            <mxPoint x="963" y="513" as="targetPoint" />
          </mxGeometry>
        </mxCell>
        <mxCell id="4leQm3MVnvcEpeQvCGNz-51" value="Авторизация" style="rounded=1;whiteSpace=wrap;html=1;" parent="1" vertex="1">
          <mxGeometry x="-37" y="650" width="120" height="60" as="geometry" />
        </mxCell>
        <mxCell id="4leQm3MVnvcEpeQvCGNz-54" value="Заполнение полей формы" style="html=1;verticalAlign=bottom;startArrow=none;endArrow=block;startSize=8;edgeStyle=elbowEdgeStyle;elbow=vertical;curved=0;rounded=0;startFill=0;" parent="1" source="4leQm3MVnvcEpeQvCGNz-4" target="4leQm3MVnvcEpeQvCGNz-11" edge="1">
          <mxGeometry relative="1" as="geometry">
            <mxPoint x="150" y="350" as="sourcePoint" />
            <mxPoint x="360" y="350" as="targetPoint" />
            <Array as="points">
              <mxPoint x="267" y="638" />
              <mxPoint x="265" y="350" />
            </Array>
          </mxGeometry>
        </mxCell>
        <mxCell id="4leQm3MVnvcEpeQvCGNz-55" value="Передача данных" style="html=1;verticalAlign=bottom;endArrow=block;edgeStyle=elbowEdgeStyle;elbow=vertical;curved=0;rounded=0;" parent="1" edge="1">
          <mxGeometry x="-0.0762" y="9" relative="1" as="geometry">
            <mxPoint x="365" y="646" as="sourcePoint" />
            <mxPoint x="575" y="646" as="targetPoint" />
            <Array as="points">
              <mxPoint x="462" y="646" />
              <mxPoint x="485" y="633" />
              <mxPoint x="530" y="367" />
              <mxPoint x="500" y="377" />
              <mxPoint x="520" y="387" />
              <mxPoint x="490" y="387" />
              <mxPoint x="520" y="317" />
              <mxPoint x="500" y="327" />
            </Array>
            <mxPoint x="1" as="offset" />
          </mxGeometry>
        </mxCell>
        <mxCell id="4leQm3MVnvcEpeQvCGNz-56" value="Поиск совпадений" style="html=1;verticalAlign=bottom;endArrow=block;edgeStyle=elbowEdgeStyle;elbow=vertical;curved=0;rounded=0;startArrow=none;startFill=0;" parent="1" edge="1">
          <mxGeometry x="0.0034" y="8" relative="1" as="geometry">
            <mxPoint x="585" y="656" as="sourcePoint" />
            <mxPoint x="882" y="656" as="targetPoint" />
            <Array as="points">
              <mxPoint x="680" y="656" />
              <mxPoint x="748" y="628" />
              <mxPoint x="640" y="449" />
              <mxPoint x="705" y="419" />
            </Array>
            <mxPoint as="offset" />
          </mxGeometry>
        </mxCell>
        <mxCell id="4leQm3MVnvcEpeQvCGNz-57" value="Результат поиска" style="html=1;verticalAlign=bottom;endArrow=open;dashed=1;endSize=8;edgeStyle=elbowEdgeStyle;elbow=vertical;curved=0;rounded=0;" parent="1" source="4leQm3MVnvcEpeQvCGNz-33" target="4leQm3MVnvcEpeQvCGNz-23" edge="1">
          <mxGeometry relative="1" as="geometry">
            <mxPoint x="570" y="490" as="targetPoint" />
            <mxPoint x="780" y="480" as="sourcePoint" />
            <Array as="points">
              <mxPoint x="761" y="727" />
              <mxPoint x="790" y="510" />
              <mxPoint x="810" y="500" />
              <mxPoint x="700" y="490" />
              <mxPoint x="720" y="480" />
              <mxPoint x="720" y="470" />
            </Array>
          </mxGeometry>
        </mxCell>
        <mxCell id="4leQm3MVnvcEpeQvCGNz-58" value="" style="html=1;verticalAlign=bottom;endArrow=open;dashed=1;endSize=8;edgeStyle=elbowEdgeStyle;elbow=vertical;curved=0;rounded=0;" parent="1" source="4leQm3MVnvcEpeQvCGNz-23" target="4leQm3MVnvcEpeQvCGNz-11" edge="1">
          <mxGeometry relative="1" as="geometry">
            <mxPoint x="360" y="490" as="targetPoint" />
            <mxPoint x="560" y="490" as="sourcePoint" />
            <Array as="points">
              <mxPoint x="496" y="733" />
              <mxPoint x="475" y="510" />
              <mxPoint x="400" y="460" />
              <mxPoint x="445" y="440" />
              <mxPoint x="465" y="390" />
            </Array>
          </mxGeometry>
        </mxCell>
        <mxCell id="4leQm3MVnvcEpeQvCGNz-59" value="Передача токена" style="edgeLabel;html=1;align=center;verticalAlign=middle;resizable=0;points=[];" parent="4leQm3MVnvcEpeQvCGNz-58" vertex="1" connectable="0">
          <mxGeometry x="0.2652" y="4" relative="1" as="geometry">
            <mxPoint x="25" y="-14" as="offset" />
          </mxGeometry>
        </mxCell>
        <mxCell id="4leQm3MVnvcEpeQvCGNz-60" value="" style="endArrow=none;html=1;rounded=0;" parent="1" edge="1">
          <mxGeometry width="50" height="50" relative="1" as="geometry">
            <mxPoint x="-37" y="814" as="sourcePoint" />
            <mxPoint x="963" y="814" as="targetPoint" />
          </mxGeometry>
        </mxCell>
        <mxCell id="4leQm3MVnvcEpeQvCGNz-61" value="Добавление&lt;br&gt;питомца" style="rounded=1;whiteSpace=wrap;html=1;" parent="1" vertex="1">
          <mxGeometry x="-37" y="930" width="120" height="60" as="geometry" />
        </mxCell>
        <mxCell id="4leQm3MVnvcEpeQvCGNz-63" style="edgeStyle=elbowEdgeStyle;rounded=0;orthogonalLoop=1;jettySize=auto;html=1;elbow=vertical;curved=0;" parent="1" source="4leQm3MVnvcEpeQvCGNz-5" target="4leQm3MVnvcEpeQvCGNz-12" edge="1">
          <mxGeometry relative="1" as="geometry">
            <Array as="points">
              <mxPoint x="210" y="890" />
              <mxPoint x="226" y="922" />
              <mxPoint x="251" y="610" />
            </Array>
          </mxGeometry>
        </mxCell>
        <mxCell id="4leQm3MVnvcEpeQvCGNz-64" value="Заполнение полей формы" style="edgeLabel;html=1;align=center;verticalAlign=middle;resizable=0;points=[];" parent="4leQm3MVnvcEpeQvCGNz-63" vertex="1" connectable="0">
          <mxGeometry x="0.342" relative="1" as="geometry">
            <mxPoint x="-36" y="-10" as="offset" />
          </mxGeometry>
        </mxCell>
        <mxCell id="4leQm3MVnvcEpeQvCGNz-65" style="edgeStyle=elbowEdgeStyle;rounded=0;orthogonalLoop=1;jettySize=auto;html=1;elbow=vertical;curved=0;" parent="1" source="4leQm3MVnvcEpeQvCGNz-12" target="4leQm3MVnvcEpeQvCGNz-24" edge="1">
          <mxGeometry relative="1" as="geometry">
            <Array as="points">
              <mxPoint x="473" y="932" />
              <mxPoint x="493" y="950" />
              <mxPoint x="490" y="620" />
              <mxPoint x="465" y="620" />
            </Array>
          </mxGeometry>
        </mxCell>
        <mxCell id="4leQm3MVnvcEpeQvCGNz-66" value="Передача данных" style="edgeLabel;html=1;align=center;verticalAlign=middle;resizable=0;points=[];" parent="4leQm3MVnvcEpeQvCGNz-65" vertex="1" connectable="0">
          <mxGeometry x="0.231" y="2" relative="1" as="geometry">
            <mxPoint x="-19" y="-13" as="offset" />
          </mxGeometry>
        </mxCell>
        <mxCell id="4leQm3MVnvcEpeQvCGNz-67" value="Отправка ответа" style="html=1;verticalAlign=bottom;endArrow=open;dashed=1;endSize=8;edgeStyle=elbowEdgeStyle;elbow=vertical;curved=0;rounded=0;" parent="1" source="4leQm3MVnvcEpeQvCGNz-24" target="4leQm3MVnvcEpeQvCGNz-12" edge="1">
          <mxGeometry x="0.05" relative="1" as="geometry">
            <mxPoint x="370" y="700" as="targetPoint" />
            <mxPoint x="510" y="690" as="sourcePoint" />
            <Array as="points">
              <mxPoint x="463" y="1051" />
              <mxPoint x="530" y="800" />
              <mxPoint x="510" y="780" />
              <mxPoint x="480" y="690" />
              <mxPoint x="550" y="710" />
            </Array>
            <mxPoint as="offset" />
          </mxGeometry>
        </mxCell>
        <mxCell id="4leQm3MVnvcEpeQvCGNz-68" value="" style="html=1;verticalAlign=bottom;endArrow=open;dashed=1;endSize=8;edgeStyle=elbowEdgeStyle;elbow=vertical;curved=0;rounded=0;" parent="1" source="4leQm3MVnvcEpeQvCGNz-9" target="4leQm3MVnvcEpeQvCGNz-2" edge="1">
          <mxGeometry relative="1" as="geometry">
            <mxPoint x="130" y="270" as="targetPoint" />
            <mxPoint x="330" y="270" as="sourcePoint" />
            <Array as="points">
              <mxPoint x="256" y="429" />
              <mxPoint x="260" y="280" />
              <mxPoint x="225" y="270" />
              <mxPoint x="245" y="220" />
            </Array>
          </mxGeometry>
        </mxCell>
        <mxCell id="4leQm3MVnvcEpeQvCGNz-69" value="Отображение главной страницы" style="edgeLabel;html=1;align=center;verticalAlign=middle;resizable=0;points=[];" parent="4leQm3MVnvcEpeQvCGNz-68" vertex="1" connectable="0">
          <mxGeometry x="0.2652" y="4" relative="1" as="geometry">
            <mxPoint x="34" y="-14" as="offset" />
          </mxGeometry>
        </mxCell>
        <mxCell id="4leQm3MVnvcEpeQvCGNz-72" value="" style="html=1;verticalAlign=bottom;endArrow=open;dashed=1;endSize=8;edgeStyle=elbowEdgeStyle;elbow=vertical;curved=0;rounded=0;" parent="1" source="4leQm3MVnvcEpeQvCGNz-11" target="4leQm3MVnvcEpeQvCGNz-4" edge="1">
          <mxGeometry relative="1" as="geometry">
            <mxPoint x="145" y="500" as="targetPoint" />
            <mxPoint x="355" y="500" as="sourcePoint" />
            <Array as="points">
              <mxPoint x="253" y="739" />
              <mxPoint x="220" y="520" />
              <mxPoint x="240" y="450" />
            </Array>
          </mxGeometry>
        </mxCell>
        <mxCell id="4leQm3MVnvcEpeQvCGNz-73" value="Отображение страницы профиля" style="edgeLabel;html=1;align=center;verticalAlign=middle;resizable=0;points=[];" parent="4leQm3MVnvcEpeQvCGNz-72" vertex="1" connectable="0">
          <mxGeometry x="0.2652" y="4" relative="1" as="geometry">
            <mxPoint x="29" y="-14" as="offset" />
          </mxGeometry>
        </mxCell>
        <mxCell id="4leQm3MVnvcEpeQvCGNz-74" value="Отображение добавления" style="html=1;verticalAlign=bottom;endArrow=open;dashed=1;endSize=8;edgeStyle=elbowEdgeStyle;elbow=vertical;curved=0;rounded=0;" parent="1" source="4leQm3MVnvcEpeQvCGNz-12" target="4leQm3MVnvcEpeQvCGNz-5" edge="1">
          <mxGeometry x="0.05" relative="1" as="geometry">
            <mxPoint x="150" y="820" as="targetPoint" />
            <mxPoint x="350" y="820" as="sourcePoint" />
            <Array as="points">
              <mxPoint x="261" y="1053" />
              <mxPoint x="310" y="810" />
              <mxPoint x="265" y="730" />
              <mxPoint x="335" y="750" />
            </Array>
            <mxPoint as="offset" />
          </mxGeometry>
        </mxCell>
        <mxCell id="4leQm3MVnvcEpeQvCGNz-93" value="" style="endArrow=none;html=1;rounded=0;" parent="1" edge="1">
          <mxGeometry width="50" height="50" relative="1" as="geometry">
            <mxPoint x="-40" y="1129" as="sourcePoint" />
            <mxPoint x="1000" y="1129" as="targetPoint" />
          </mxGeometry>
        </mxCell>
        <mxCell id="4leQm3MVnvcEpeQvCGNz-94" value="" style="endArrow=classic;html=1;rounded=0;exitX=0.54;exitY=0.236;exitDx=0;exitDy=0;exitPerimeter=0;" parent="1" edge="1">
          <mxGeometry width="50" height="50" relative="1" as="geometry">
            <mxPoint x="365" y="581.0000000000001" as="sourcePoint" />
            <mxPoint x="365" y="613.1999999999999" as="targetPoint" />
            <Array as="points">
              <mxPoint x="401" y="581.2" />
              <mxPoint x="401" y="613.2" />
            </Array>
          </mxGeometry>
        </mxCell>
        <mxCell id="4leQm3MVnvcEpeQvCGNz-95" value="Проверка корректности&lt;br style=&quot;border-color: var(--border-color);&quot;&gt;данных" style="edgeLabel;html=1;align=center;verticalAlign=middle;resizable=0;points=[];" parent="4leQm3MVnvcEpeQvCGNz-94" vertex="1" connectable="0">
          <mxGeometry x="-0.5377" y="1" relative="1" as="geometry">
            <mxPoint x="71" y="-13" as="offset" />
          </mxGeometry>
        </mxCell>
        <mxCell id="4leQm3MVnvcEpeQvCGNz-102" style="edgeStyle=elbowEdgeStyle;rounded=0;orthogonalLoop=1;jettySize=auto;html=1;elbow=vertical;curved=0;" parent="1" source="4leQm3MVnvcEpeQvCGNz-24" target="4leQm3MVnvcEpeQvCGNz-34" edge="1">
          <mxGeometry relative="1" as="geometry">
            <Array as="points">
              <mxPoint x="801" y="951" />
              <mxPoint x="688" y="981" />
              <mxPoint x="760" y="670" />
            </Array>
          </mxGeometry>
        </mxCell>
        <mxCell id="4leQm3MVnvcEpeQvCGNz-103" value="Добавление питомца" style="edgeLabel;html=1;align=center;verticalAlign=middle;resizable=0;points=[];" parent="4leQm3MVnvcEpeQvCGNz-102" vertex="1" connectable="0">
          <mxGeometry x="-0.0234" y="1" relative="1" as="geometry">
            <mxPoint y="-8" as="offset" />
          </mxGeometry>
        </mxCell>
        <mxCell id="4leQm3MVnvcEpeQvCGNz-104" value="Оповещение о добавление" style="html=1;verticalAlign=bottom;endArrow=open;dashed=1;endSize=8;edgeStyle=elbowEdgeStyle;elbow=vertical;curved=0;rounded=0;" parent="1" source="4leQm3MVnvcEpeQvCGNz-34" target="4leQm3MVnvcEpeQvCGNz-24" edge="1">
          <mxGeometry relative="1" as="geometry">
            <mxPoint x="570" y="740" as="targetPoint" />
            <mxPoint x="880" y="740" as="sourcePoint" />
            <Array as="points">
              <mxPoint x="739" y="1051" />
              <mxPoint x="695" y="740" />
              <mxPoint x="715" y="730" />
              <mxPoint x="715" y="720" />
            </Array>
          </mxGeometry>
        </mxCell>
        <mxCell id="4leQm3MVnvcEpeQvCGNz-112" value="" style="endArrow=classic;html=1;rounded=0;exitX=0.54;exitY=0.236;exitDx=0;exitDy=0;exitPerimeter=0;" parent="1" edge="1">
          <mxGeometry width="50" height="50" relative="1" as="geometry">
            <mxPoint x="585" y="609" as="sourcePoint" />
            <mxPoint x="585" y="641.1999999999998" as="targetPoint" />
            <Array as="points">
              <mxPoint x="621" y="609.2" />
              <mxPoint x="621" y="641.2" />
            </Array>
          </mxGeometry>
        </mxCell>
        <mxCell id="4leQm3MVnvcEpeQvCGNz-113" value="Проверка корректности&lt;br style=&quot;border-color: var(--border-color);&quot;&gt;данных" style="edgeLabel;html=1;align=center;verticalAlign=middle;resizable=0;points=[];" parent="4leQm3MVnvcEpeQvCGNz-112" vertex="1" connectable="0">
          <mxGeometry x="-0.5377" y="1" relative="1" as="geometry">
            <mxPoint x="51" y="-23" as="offset" />
          </mxGeometry>
        </mxCell>
        <mxCell id="4leQm3MVnvcEpeQvCGNz-132" value="" style="html=1;points=[];perimeter=orthogonalPerimeter;outlineConnect=0;targetShapes=umlLifeline;portConstraint=eastwest;newEdgeStyle={&quot;edgeStyle&quot;:&quot;elbowEdgeStyle&quot;,&quot;elbow&quot;:&quot;vertical&quot;,&quot;curved&quot;:0,&quot;rounded&quot;:0};" parent="1" vertex="1">
          <mxGeometry x="106" y="1139" width="10" height="250" as="geometry" />
        </mxCell>
        <mxCell id="4leQm3MVnvcEpeQvCGNz-133" value="" style="html=1;points=[];perimeter=orthogonalPerimeter;outlineConnect=0;targetShapes=umlLifeline;portConstraint=eastwest;newEdgeStyle={&quot;edgeStyle&quot;:&quot;elbowEdgeStyle&quot;,&quot;elbow&quot;:&quot;vertical&quot;,&quot;curved&quot;:0,&quot;rounded&quot;:0};" parent="1" vertex="1">
          <mxGeometry x="355" y="1139" width="10" height="240" as="geometry" />
        </mxCell>
        <mxCell id="4leQm3MVnvcEpeQvCGNz-135" value="" style="html=1;points=[];perimeter=orthogonalPerimeter;outlineConnect=0;targetShapes=umlLifeline;portConstraint=eastwest;newEdgeStyle={&quot;edgeStyle&quot;:&quot;elbowEdgeStyle&quot;,&quot;elbow&quot;:&quot;vertical&quot;,&quot;curved&quot;:0,&quot;rounded&quot;:0};" parent="1" vertex="1">
          <mxGeometry x="885" y="1189" width="10" height="130" as="geometry" />
        </mxCell>
        <mxCell id="4leQm3MVnvcEpeQvCGNz-136" value="Добавление информации о питомце" style="rounded=1;whiteSpace=wrap;html=1;" parent="1" vertex="1">
          <mxGeometry x="-40" y="1219" width="120" height="60" as="geometry" />
        </mxCell>
        <mxCell id="4leQm3MVnvcEpeQvCGNz-137" style="edgeStyle=elbowEdgeStyle;rounded=0;orthogonalLoop=1;jettySize=auto;html=1;elbow=vertical;curved=0;" parent="1" source="4leQm3MVnvcEpeQvCGNz-132" target="4leQm3MVnvcEpeQvCGNz-133" edge="1">
          <mxGeometry relative="1" as="geometry">
            <Array as="points">
              <mxPoint x="251" y="1159" />
            </Array>
          </mxGeometry>
        </mxCell>
        <mxCell id="4leQm3MVnvcEpeQvCGNz-138" value="Заполнение полей формы" style="edgeLabel;html=1;align=center;verticalAlign=middle;resizable=0;points=[];" parent="4leQm3MVnvcEpeQvCGNz-137" vertex="1" connectable="0">
          <mxGeometry x="0.342" relative="1" as="geometry">
            <mxPoint x="-36" y="-10" as="offset" />
          </mxGeometry>
        </mxCell>
        <mxCell id="4leQm3MVnvcEpeQvCGNz-139" style="edgeStyle=elbowEdgeStyle;rounded=0;orthogonalLoop=1;jettySize=auto;html=1;elbow=vertical;curved=0;" parent="1" source="4leQm3MVnvcEpeQvCGNz-133" target="4leQm3MVnvcEpeQvCGNz-134" edge="1">
          <mxGeometry relative="1" as="geometry">
            <Array as="points">
              <mxPoint x="470" y="1189" />
              <mxPoint x="490" y="1169" />
              <mxPoint x="465" y="1169" />
            </Array>
          </mxGeometry>
        </mxCell>
        <mxCell id="4leQm3MVnvcEpeQvCGNz-140" value="Передача данных" style="edgeLabel;html=1;align=center;verticalAlign=middle;resizable=0;points=[];" parent="4leQm3MVnvcEpeQvCGNz-139" vertex="1" connectable="0">
          <mxGeometry x="0.231" y="2" relative="1" as="geometry">
            <mxPoint x="-19" y="-13" as="offset" />
          </mxGeometry>
        </mxCell>
        <mxCell id="4leQm3MVnvcEpeQvCGNz-141" value="Отправка ответа" style="html=1;verticalAlign=bottom;endArrow=open;dashed=1;endSize=8;edgeStyle=elbowEdgeStyle;elbow=vertical;curved=0;rounded=0;" parent="1" source="4leQm3MVnvcEpeQvCGNz-134" target="4leQm3MVnvcEpeQvCGNz-133" edge="1">
          <mxGeometry x="0.05" relative="1" as="geometry">
            <mxPoint x="370" y="1249" as="targetPoint" />
            <mxPoint x="510" y="1239" as="sourcePoint" />
            <Array as="points">
              <mxPoint x="510" y="1339" />
              <mxPoint x="530" y="1349" />
              <mxPoint x="510" y="1329" />
              <mxPoint x="480" y="1239" />
              <mxPoint x="550" y="1259" />
            </Array>
            <mxPoint as="offset" />
          </mxGeometry>
        </mxCell>
        <mxCell id="4leQm3MVnvcEpeQvCGNz-142" value="Отображение добавления" style="html=1;verticalAlign=bottom;endArrow=open;dashed=1;endSize=8;edgeStyle=elbowEdgeStyle;elbow=vertical;curved=0;rounded=0;" parent="1" source="4leQm3MVnvcEpeQvCGNz-133" target="4leQm3MVnvcEpeQvCGNz-132" edge="1">
          <mxGeometry x="0.05" relative="1" as="geometry">
            <mxPoint x="150" y="1369" as="targetPoint" />
            <mxPoint x="350" y="1369" as="sourcePoint" />
            <Array as="points">
              <mxPoint x="310" y="1359" />
              <mxPoint x="265" y="1279" />
              <mxPoint x="335" y="1299" />
            </Array>
            <mxPoint as="offset" />
          </mxGeometry>
        </mxCell>
        <mxCell id="4leQm3MVnvcEpeQvCGNz-143" style="edgeStyle=elbowEdgeStyle;rounded=0;orthogonalLoop=1;jettySize=auto;html=1;elbow=vertical;curved=0;" parent="1" source="4leQm3MVnvcEpeQvCGNz-134" target="4leQm3MVnvcEpeQvCGNz-135" edge="1">
          <mxGeometry relative="1" as="geometry">
            <Array as="points">
              <mxPoint x="760" y="1219" />
            </Array>
          </mxGeometry>
        </mxCell>
        <mxCell id="4leQm3MVnvcEpeQvCGNz-144" value="Добавление информации" style="edgeLabel;html=1;align=center;verticalAlign=middle;resizable=0;points=[];" parent="4leQm3MVnvcEpeQvCGNz-143" vertex="1" connectable="0">
          <mxGeometry x="-0.0234" y="1" relative="1" as="geometry">
            <mxPoint x="13" y="-9" as="offset" />
          </mxGeometry>
        </mxCell>
        <mxCell id="4leQm3MVnvcEpeQvCGNz-145" value="Оповещение о добавлении" style="html=1;verticalAlign=bottom;endArrow=open;dashed=1;endSize=8;edgeStyle=elbowEdgeStyle;elbow=vertical;curved=0;rounded=0;" parent="1" source="4leQm3MVnvcEpeQvCGNz-135" target="4leQm3MVnvcEpeQvCGNz-134" edge="1">
          <mxGeometry relative="1" as="geometry">
            <mxPoint x="570" y="1289" as="targetPoint" />
            <mxPoint x="880" y="1289" as="sourcePoint" />
            <Array as="points">
              <mxPoint x="660" y="1279" />
              <mxPoint x="770" y="1259" />
              <mxPoint x="750" y="1299" />
              <mxPoint x="695" y="1289" />
              <mxPoint x="715" y="1279" />
              <mxPoint x="715" y="1269" />
            </Array>
          </mxGeometry>
        </mxCell>
        <mxCell id="4leQm3MVnvcEpeQvCGNz-146" value="" style="endArrow=none;html=1;rounded=0;" parent="1" edge="1">
          <mxGeometry width="50" height="50" relative="1" as="geometry">
            <mxPoint x="-40" y="1409" as="sourcePoint" />
            <mxPoint x="1000" y="1409" as="targetPoint" />
          </mxGeometry>
        </mxCell>
        <mxCell id="4leQm3MVnvcEpeQvCGNz-147" value="" style="html=1;points=[];perimeter=orthogonalPerimeter;outlineConnect=0;targetShapes=umlLifeline;portConstraint=eastwest;newEdgeStyle={&quot;edgeStyle&quot;:&quot;elbowEdgeStyle&quot;,&quot;elbow&quot;:&quot;vertical&quot;,&quot;curved&quot;:0,&quot;rounded&quot;:0};" parent="1" vertex="1">
          <mxGeometry x="106" y="1419" width="10" height="250" as="geometry" />
        </mxCell>
        <mxCell id="4leQm3MVnvcEpeQvCGNz-148" value="" style="html=1;points=[];perimeter=orthogonalPerimeter;outlineConnect=0;targetShapes=umlLifeline;portConstraint=eastwest;newEdgeStyle={&quot;edgeStyle&quot;:&quot;elbowEdgeStyle&quot;,&quot;elbow&quot;:&quot;vertical&quot;,&quot;curved&quot;:0,&quot;rounded&quot;:0};" parent="1" vertex="1">
          <mxGeometry x="355" y="1419" width="10" height="240" as="geometry" />
        </mxCell>
        <mxCell id="4leQm3MVnvcEpeQvCGNz-150" value="" style="html=1;points=[];perimeter=orthogonalPerimeter;outlineConnect=0;targetShapes=umlLifeline;portConstraint=eastwest;newEdgeStyle={&quot;edgeStyle&quot;:&quot;elbowEdgeStyle&quot;,&quot;elbow&quot;:&quot;vertical&quot;,&quot;curved&quot;:0,&quot;rounded&quot;:0};" parent="1" vertex="1">
          <mxGeometry x="885" y="1469" width="10" height="130" as="geometry" />
        </mxCell>
        <mxCell id="4leQm3MVnvcEpeQvCGNz-151" value="Добавление информации о здоровье питомца" style="rounded=1;whiteSpace=wrap;html=1;" parent="1" vertex="1">
          <mxGeometry x="-40" y="1499" width="120" height="60" as="geometry" />
        </mxCell>
        <mxCell id="4leQm3MVnvcEpeQvCGNz-152" style="edgeStyle=elbowEdgeStyle;rounded=0;orthogonalLoop=1;jettySize=auto;html=1;elbow=vertical;curved=0;" parent="1" source="4leQm3MVnvcEpeQvCGNz-147" target="4leQm3MVnvcEpeQvCGNz-148" edge="1">
          <mxGeometry relative="1" as="geometry">
            <Array as="points">
              <mxPoint x="251" y="1439" />
            </Array>
          </mxGeometry>
        </mxCell>
        <mxCell id="4leQm3MVnvcEpeQvCGNz-153" value="Заполнение полей формы" style="edgeLabel;html=1;align=center;verticalAlign=middle;resizable=0;points=[];" parent="4leQm3MVnvcEpeQvCGNz-152" vertex="1" connectable="0">
          <mxGeometry x="0.342" relative="1" as="geometry">
            <mxPoint x="-36" y="-10" as="offset" />
          </mxGeometry>
        </mxCell>
        <mxCell id="4leQm3MVnvcEpeQvCGNz-154" style="edgeStyle=elbowEdgeStyle;rounded=0;orthogonalLoop=1;jettySize=auto;html=1;elbow=vertical;curved=0;" parent="1" source="4leQm3MVnvcEpeQvCGNz-148" target="4leQm3MVnvcEpeQvCGNz-149" edge="1">
          <mxGeometry relative="1" as="geometry">
            <Array as="points">
              <mxPoint x="470" y="1469" />
              <mxPoint x="490" y="1449" />
              <mxPoint x="465" y="1449" />
            </Array>
          </mxGeometry>
        </mxCell>
        <mxCell id="4leQm3MVnvcEpeQvCGNz-155" value="Передача данных" style="edgeLabel;html=1;align=center;verticalAlign=middle;resizable=0;points=[];" parent="4leQm3MVnvcEpeQvCGNz-154" vertex="1" connectable="0">
          <mxGeometry x="0.231" y="2" relative="1" as="geometry">
            <mxPoint x="-19" y="-13" as="offset" />
          </mxGeometry>
        </mxCell>
        <mxCell id="4leQm3MVnvcEpeQvCGNz-156" value="Отправка ответа" style="html=1;verticalAlign=bottom;endArrow=open;dashed=1;endSize=8;edgeStyle=elbowEdgeStyle;elbow=vertical;curved=0;rounded=0;" parent="1" source="4leQm3MVnvcEpeQvCGNz-149" target="4leQm3MVnvcEpeQvCGNz-148" edge="1">
          <mxGeometry relative="1" as="geometry">
            <mxPoint x="370" y="1529" as="targetPoint" />
            <mxPoint x="510" y="1519" as="sourcePoint" />
            <Array as="points">
              <mxPoint x="510" y="1619" />
              <mxPoint x="530" y="1629" />
              <mxPoint x="510" y="1609" />
              <mxPoint x="480" y="1519" />
              <mxPoint x="550" y="1539" />
            </Array>
            <mxPoint as="offset" />
          </mxGeometry>
        </mxCell>
        <mxCell id="4leQm3MVnvcEpeQvCGNz-157" value="Отображение добавления" style="html=1;verticalAlign=bottom;endArrow=open;dashed=1;endSize=8;edgeStyle=elbowEdgeStyle;elbow=vertical;curved=0;rounded=0;" parent="1" source="4leQm3MVnvcEpeQvCGNz-148" target="4leQm3MVnvcEpeQvCGNz-147" edge="1">
          <mxGeometry x="0.05" relative="1" as="geometry">
            <mxPoint x="150" y="1649" as="targetPoint" />
            <mxPoint x="350" y="1649" as="sourcePoint" />
            <Array as="points">
              <mxPoint x="310" y="1639" />
              <mxPoint x="265" y="1559" />
              <mxPoint x="335" y="1579" />
            </Array>
            <mxPoint as="offset" />
          </mxGeometry>
        </mxCell>
        <mxCell id="4leQm3MVnvcEpeQvCGNz-158" style="edgeStyle=elbowEdgeStyle;rounded=0;orthogonalLoop=1;jettySize=auto;html=1;elbow=vertical;curved=0;" parent="1" source="4leQm3MVnvcEpeQvCGNz-149" target="4leQm3MVnvcEpeQvCGNz-150" edge="1">
          <mxGeometry relative="1" as="geometry">
            <Array as="points">
              <mxPoint x="760" y="1499" />
            </Array>
          </mxGeometry>
        </mxCell>
        <mxCell id="4leQm3MVnvcEpeQvCGNz-159" value="Добавление информации" style="edgeLabel;html=1;align=center;verticalAlign=middle;resizable=0;points=[];" parent="4leQm3MVnvcEpeQvCGNz-158" vertex="1" connectable="0">
          <mxGeometry x="-0.0234" y="1" relative="1" as="geometry">
            <mxPoint x="13" y="-9" as="offset" />
          </mxGeometry>
        </mxCell>
        <mxCell id="4leQm3MVnvcEpeQvCGNz-160" value="Оповещение о добавлении" style="html=1;verticalAlign=bottom;endArrow=open;dashed=1;endSize=8;edgeStyle=elbowEdgeStyle;elbow=vertical;curved=0;rounded=0;" parent="1" source="4leQm3MVnvcEpeQvCGNz-150" target="4leQm3MVnvcEpeQvCGNz-149" edge="1">
          <mxGeometry relative="1" as="geometry">
            <mxPoint x="570" y="1569" as="targetPoint" />
            <mxPoint x="880" y="1569" as="sourcePoint" />
            <Array as="points">
              <mxPoint x="760" y="1579" />
              <mxPoint x="660" y="1559" />
              <mxPoint x="770" y="1539" />
              <mxPoint x="750" y="1579" />
              <mxPoint x="695" y="1569" />
              <mxPoint x="715" y="1559" />
              <mxPoint x="715" y="1549" />
            </Array>
          </mxGeometry>
        </mxCell>
        <mxCell id="4leQm3MVnvcEpeQvCGNz-161" value="" style="endArrow=none;html=1;rounded=0;" parent="1" edge="1">
          <mxGeometry width="50" height="50" relative="1" as="geometry">
            <mxPoint x="-40" y="1689" as="sourcePoint" />
            <mxPoint x="1000" y="1689" as="targetPoint" />
          </mxGeometry>
        </mxCell>
        <mxCell id="uqAqxy9ySAdUdyoLMSND-1" value="Добавление корма питомца" style="rounded=1;whiteSpace=wrap;html=1;" parent="1" vertex="1">
          <mxGeometry x="-40" y="1790" width="120" height="60" as="geometry" />
        </mxCell>
        <mxCell id="uqAqxy9ySAdUdyoLMSND-3" value="" style="html=1;points=[];perimeter=orthogonalPerimeter;outlineConnect=0;targetShapes=umlLifeline;portConstraint=eastwest;newEdgeStyle={&quot;edgeStyle&quot;:&quot;elbowEdgeStyle&quot;,&quot;elbow&quot;:&quot;vertical&quot;,&quot;curved&quot;:0,&quot;rounded&quot;:0};" parent="1" vertex="1">
          <mxGeometry x="106" y="1700" width="10" height="250" as="geometry" />
        </mxCell>
        <mxCell id="uqAqxy9ySAdUdyoLMSND-4" value="" style="html=1;points=[];perimeter=orthogonalPerimeter;outlineConnect=0;targetShapes=umlLifeline;portConstraint=eastwest;newEdgeStyle={&quot;edgeStyle&quot;:&quot;elbowEdgeStyle&quot;,&quot;elbow&quot;:&quot;vertical&quot;,&quot;curved&quot;:0,&quot;rounded&quot;:0};" parent="1" vertex="1">
          <mxGeometry x="355" y="1700" width="10" height="240" as="geometry" />
        </mxCell>
        <mxCell id="uqAqxy9ySAdUdyoLMSND-6" value="" style="html=1;points=[];perimeter=orthogonalPerimeter;outlineConnect=0;targetShapes=umlLifeline;portConstraint=eastwest;newEdgeStyle={&quot;edgeStyle&quot;:&quot;elbowEdgeStyle&quot;,&quot;elbow&quot;:&quot;vertical&quot;,&quot;curved&quot;:0,&quot;rounded&quot;:0};" parent="1" vertex="1">
          <mxGeometry x="885" y="1750" width="10" height="130" as="geometry" />
        </mxCell>
        <mxCell id="uqAqxy9ySAdUdyoLMSND-8" style="edgeStyle=elbowEdgeStyle;rounded=0;orthogonalLoop=1;jettySize=auto;html=1;elbow=vertical;curved=0;" parent="1" source="uqAqxy9ySAdUdyoLMSND-3" target="uqAqxy9ySAdUdyoLMSND-4" edge="1">
          <mxGeometry relative="1" as="geometry">
            <Array as="points">
              <mxPoint x="251" y="1720" />
            </Array>
          </mxGeometry>
        </mxCell>
        <mxCell id="uqAqxy9ySAdUdyoLMSND-9" value="Заполнение полей формы" style="edgeLabel;html=1;align=center;verticalAlign=middle;resizable=0;points=[];" parent="uqAqxy9ySAdUdyoLMSND-8" vertex="1" connectable="0">
          <mxGeometry x="0.342" relative="1" as="geometry">
            <mxPoint x="-36" y="-10" as="offset" />
          </mxGeometry>
        </mxCell>
        <mxCell id="uqAqxy9ySAdUdyoLMSND-10" style="edgeStyle=elbowEdgeStyle;rounded=0;orthogonalLoop=1;jettySize=auto;html=1;elbow=vertical;curved=0;" parent="1" source="uqAqxy9ySAdUdyoLMSND-4" target="uqAqxy9ySAdUdyoLMSND-5" edge="1">
          <mxGeometry relative="1" as="geometry">
            <Array as="points">
              <mxPoint x="470" y="1750" />
              <mxPoint x="490" y="1730" />
              <mxPoint x="465" y="1730" />
            </Array>
          </mxGeometry>
        </mxCell>
        <mxCell id="uqAqxy9ySAdUdyoLMSND-11" value="Передача данных" style="edgeLabel;html=1;align=center;verticalAlign=middle;resizable=0;points=[];" parent="uqAqxy9ySAdUdyoLMSND-10" vertex="1" connectable="0">
          <mxGeometry x="0.231" y="2" relative="1" as="geometry">
            <mxPoint x="-19" y="-13" as="offset" />
          </mxGeometry>
        </mxCell>
        <mxCell id="uqAqxy9ySAdUdyoLMSND-12" value="Отправка ответа" style="html=1;verticalAlign=bottom;endArrow=open;dashed=1;endSize=8;edgeStyle=elbowEdgeStyle;elbow=vertical;curved=0;rounded=0;" parent="1" source="uqAqxy9ySAdUdyoLMSND-5" target="uqAqxy9ySAdUdyoLMSND-4" edge="1">
          <mxGeometry relative="1" as="geometry">
            <mxPoint x="370" y="1810" as="targetPoint" />
            <mxPoint x="510" y="1800" as="sourcePoint" />
            <Array as="points">
              <mxPoint x="510" y="1900" />
              <mxPoint x="530" y="1910" />
              <mxPoint x="510" y="1890" />
              <mxPoint x="480" y="1800" />
              <mxPoint x="550" y="1820" />
            </Array>
            <mxPoint as="offset" />
          </mxGeometry>
        </mxCell>
        <mxCell id="uqAqxy9ySAdUdyoLMSND-13" value="Отображение добавления" style="html=1;verticalAlign=bottom;endArrow=open;dashed=1;endSize=8;edgeStyle=elbowEdgeStyle;elbow=vertical;curved=0;rounded=0;" parent="1" source="uqAqxy9ySAdUdyoLMSND-4" target="uqAqxy9ySAdUdyoLMSND-3" edge="1">
          <mxGeometry x="0.05" relative="1" as="geometry">
            <mxPoint x="150" y="1930" as="targetPoint" />
            <mxPoint x="350" y="1930" as="sourcePoint" />
            <Array as="points">
              <mxPoint x="310" y="1920" />
              <mxPoint x="265" y="1840" />
              <mxPoint x="335" y="1860" />
            </Array>
            <mxPoint as="offset" />
          </mxGeometry>
        </mxCell>
        <mxCell id="uqAqxy9ySAdUdyoLMSND-14" style="edgeStyle=elbowEdgeStyle;rounded=0;orthogonalLoop=1;jettySize=auto;html=1;elbow=vertical;curved=0;" parent="1" source="uqAqxy9ySAdUdyoLMSND-5" target="uqAqxy9ySAdUdyoLMSND-6" edge="1">
          <mxGeometry relative="1" as="geometry">
            <Array as="points">
              <mxPoint x="760" y="1780" />
            </Array>
          </mxGeometry>
        </mxCell>
        <mxCell id="uqAqxy9ySAdUdyoLMSND-15" value="Добавление корма" style="edgeLabel;html=1;align=center;verticalAlign=middle;resizable=0;points=[];" parent="uqAqxy9ySAdUdyoLMSND-14" vertex="1" connectable="0">
          <mxGeometry x="-0.0234" y="1" relative="1" as="geometry">
            <mxPoint x="13" y="-9" as="offset" />
          </mxGeometry>
        </mxCell>
        <mxCell id="uqAqxy9ySAdUdyoLMSND-16" value="Оповещение о добавлении" style="html=1;verticalAlign=bottom;endArrow=open;dashed=1;endSize=8;edgeStyle=elbowEdgeStyle;elbow=vertical;curved=0;rounded=0;" parent="1" source="uqAqxy9ySAdUdyoLMSND-6" target="uqAqxy9ySAdUdyoLMSND-5" edge="1">
          <mxGeometry relative="1" as="geometry">
            <mxPoint x="570" y="1850" as="targetPoint" />
            <mxPoint x="880" y="1850" as="sourcePoint" />
            <Array as="points">
              <mxPoint x="760" y="1860" />
              <mxPoint x="660" y="1840" />
              <mxPoint x="770" y="1820" />
              <mxPoint x="750" y="1860" />
              <mxPoint x="695" y="1850" />
              <mxPoint x="715" y="1840" />
              <mxPoint x="715" y="1830" />
            </Array>
          </mxGeometry>
        </mxCell>
        <mxCell id="uqAqxy9ySAdUdyoLMSND-17" value="" style="endArrow=none;html=1;rounded=0;" parent="1" edge="1">
          <mxGeometry width="50" height="50" relative="1" as="geometry">
            <mxPoint x="-40" y="1970" as="sourcePoint" />
            <mxPoint x="1000" y="1970" as="targetPoint" />
          </mxGeometry>
        </mxCell>
      </root>
    </mxGraphModel>
  </diagram>
</mxfile>
